<mxfile
  host="Electron" 
  agent="Mozilla/5.0 (Macintosh; Intel Mac OS X 10_15_7) AppleWebKit/537.36 (KHTML, like Gecko) draw.io/25.0.2 Chrome/128.0.6613.186 Electron/32.2.5 Safari/537.36" 
  version="25.0.2"
  >
  <diagram
    name="development-environment"
    >
    <mxGraphModel
      grid="1" 
      gridSize="10" 
      guides="1" 
      tooltips="1" 
      connect="1" 
      arrows="1" 
      fold="1" 
      page="1" 
      pageScale="1" 
      pageWidth="1" 
      pageHeight="1" 
      math="0" 
      shadow="0"
      >
      <root>
        <mxCell
          id="page"
          />
        <mxCell
          id="root" 
          parent="page"
          />
        <mxCell
          style="align=center;strokeColor=none;verticalAlign=top;aspect=fixed" 
          id="stack_developmentenvironment" 
          parent="root" 
          value="Development Environment" 
          vertex="1"
          >
          <mxGeometry
            as="geometry" 
            width="1020" 
            height="600" 
            x="0" 
            y="0"
            />
          </mxCell>
        <mxCell
          style="shape=mxgraph.aws4.client;fillColor=#000000;verticalLabelPosition=bottom;verticalAlign=top;align=center;aspect=fixed" 
          id="client" 
          parent="stack_developmentenvironment" 
          value="Client" 
          vertex="1"
          >
          <mxGeometry
            as="geometry" 
            width="60" 
            height="60" 
            x="30" 
            y="210"
            />
          </mxCell>
        <mxCell
          style="shape=mxgraph.aws4.group;align=left;spacingLeft=30;verticalAlign=top;aspect=fixed;grIcon=mxgraph.aws4.group_aws_cloud_alt" 
          id="cloud" 
          parent="stack_developmentenvironment" 
          value="Cloud" 
          vertex="1"
          >
          <mxGeometry
            as="geometry" 
            width="870" 
            height="540" 
            x="120" 
            y="30"
            />
          </mxCell>
        <mxCell
          style="shape=mxgraph.aws4.group;align=left;spacingLeft=30;verticalAlign=top;aspect=fixed;grIcon=mxgraph.aws4.group_region;strokeColor=#00A4A6;fontColor=#00A4A6" 
          id="region" 
          parent="cloud" 
          value="Region" 
          vertex="1"
          >
          <mxGeometry
            as="geometry" 
            width="810" 
            height="480" 
            x="30" 
            y="30"
            />
          </mxCell>
        <mxCell
          style="shape=mxgraph.aws4.group;align=left;spacingLeft=30;verticalAlign=top;aspect=fixed;grIcon=mxgraph.aws4.group_vpc2;strokeColor=#8C4FFF;fontColor=#8C4FFF" 
          id="vpc" 
          parent="region" 
          value="VPC" 
          vertex="1"
          >
          <mxGeometry
            as="geometry" 
            width="750" 
            height="420" 
            x="30" 
            y="30"
            />
          </mxCell>
        <mxCell
          style="shape=mxgraph.aws4.group;align=left;spacingLeft=30;verticalAlign=top;aspect=fixed;grIcon=mxgraph.aws4.group_security_group;fillColor=#F2F6E8;strokeWidth=0;strokeColor=#7AA116;fontColor=#7AA116" 
          id="public_subnet_publicsubnet" 
          parent="vpc" 
          value="Public Subnet" 
          vertex="1"
          >
          <mxGeometry
            as="geometry" 
            width="120" 
            height="360" 
            x="30" 
            y="30"
            />
          </mxCell>
        <mxCell
          style="shape=mxgraph.aws4.application_load_balancer;fillColor=#8C4FFF;verticalLabelPosition=bottom;verticalAlign=top;align=center;aspect=fixed;strokeColor=#8C4FFF;fontColor=#8C4FFF" 
          id="load_balancer_loadbalancer" 
          parent="public_subnet_publicsubnet" 
          value="Load Balancer" 
          vertex="1"
          >
          <mxGeometry
            as="geometry" 
            width="60" 
            height="60" 
            x="30" 
            y="90"
            />
          </mxCell>
        <mxCell
          style="shape=mxgraph.aws4.waf;fillColor=#8C4FFF;verticalLabelPosition=bottom;verticalAlign=top;align=center;aspect=fixed;strokeColor=#8C4FFF;fontColor=#8C4FFF" 
          id="waf" 
          parent="public_subnet_publicsubnet" 
          value="Waf" 
          vertex="1"
          >
          <mxGeometry
            as="geometry" 
            width="60" 
            height="60" 
            x="30" 
            y="210"
            />
          </mxCell>
        <mxCell
          style="shape=mxgraph.aws4.group;align=left;spacingLeft=30;verticalAlign=top;aspect=fixed;grIcon=mxgraph.aws4.group_security_group;fillColor=#E6F6F7;strokeWidth=0;strokeColor=#00A4A6;fontColor=#00A4A6" 
          id="private_subnet_privatesubnet" 
          parent="vpc" 
          value="Private Subnet" 
          vertex="1"
          >
          <mxGeometry
            as="geometry" 
            width="540" 
            height="360" 
            x="180" 
            y="30"
            />
          </mxCell>
        <mxCell
          style="align=center;spacingLeft=5;spacingRight=5;spacingBottom=5;verticalAlign=top;aspect=fixed;dashed=1;fillColor=none" 
          id="ecs_cluster_ecscluster" 
          parent="private_subnet_privatesubnet" 
          value="ECS Cluster" 
          vertex="1"
          >
          <mxGeometry
            as="geometry" 
            width="480" 
            height="180" 
            x="30" 
            y="30"
            />
          </mxCell>
        <mxCell
          style="shape=mxgraph.aws4.group;align=left;spacingLeft=30;verticalAlign=top;aspect=fixed;grIcon=mxgraph.aws4.group_ec2_instance_contents;strokeColor=#D86613;fontColor=#D86613" 
          id="ecs_service_ecsservice" 
          parent="ecs_cluster_ecscluster" 
          value="ECS Service" 
          vertex="1"
          >
          <mxGeometry
            as="geometry" 
            width="120" 
            height="120" 
            x="30" 
            y="30"
            />
          </mxCell>
        <mxCell
          style="shape=mxgraph.aws3.android;fillColor=#AE1F23;verticalLabelPosition=bottom;verticalAlign=top;align=center;aspect=fixed;strokeColor=#AE1F23;fontColor=#AE1F23" 
          id="ecs_container_web" 
          parent="ecs_service_ecsservice" 
          value="web" 
          vertex="1"
          >
          <mxGeometry
            as="geometry" 
            width="60" 
            height="60" 
            x="30" 
            y="30"
            />
          </mxCell>
        <mxCell
          style="shape=mxgraph.aws4.group;align=left;spacingLeft=30;verticalAlign=top;aspect=fixed;grIcon=mxgraph.aws4.group_ec2_instance_contents;strokeColor=#D86613;fontColor=#D86613" 
          id="ecs_service_2" 
          parent="ecs_cluster_ecscluster" 
          value="ECS Service" 
          vertex="1"
          >
          <mxGeometry
            as="geometry" 
            width="120" 
            height="120" 
            x="180" 
            y="30"
            />
          </mxCell>
        <mxCell
          style="shape=mxgraph.aws3.android;fillColor=#AE1F23;verticalLabelPosition=bottom;verticalAlign=top;align=center;aspect=fixed;strokeColor=#AE1F23;fontColor=#AE1F23" 
          id="ecs_container_job" 
          parent="ecs_service_2" 
          value="job" 
          vertex="1"
          >
          <mxGeometry
            as="geometry" 
            width="60" 
            height="60" 
            x="30" 
            y="30"
            />
          </mxCell>
        <mxCell
          style="shape=mxgraph.aws4.group;align=left;spacingLeft=30;verticalAlign=top;aspect=fixed;grIcon=mxgraph.aws4.group_ec2_instance_contents;dashed=1;strokeColor=#D86613;fontColor=#D86613" 
          id="ecs_service_3" 
          parent="ecs_cluster_ecscluster" 
          value="ECS Service" 
          vertex="1"
          >
          <mxGeometry
            as="geometry" 
            width="120" 
            height="120" 
            x="330" 
            y="30"
            />
          </mxCell>
        <mxCell
          style="shape=mxgraph.aws3.android;fillColor=#AE1F23;verticalLabelPosition=bottom;verticalAlign=top;align=center;aspect=fixed;strokeColor=#AE1F23;fontColor=#AE1F23" 
          id="ecs_container_migration" 
          parent="ecs_service_3" 
          value="migration" 
          vertex="1"
          >
          <mxGeometry
            as="geometry" 
            width="60" 
            height="60" 
            x="30" 
            y="30"
            />
          </mxCell>
        <mxCell
          style="align=center;spacingLeft=5;spacingRight=5;spacingBottom=5;verticalAlign=top;aspect=fixed;noLabel=1;opacity=0" 
          id="storage_layer_storagelayer" 
          parent="private_subnet_privatesubnet" 
          value="Storage Layer" 
          vertex="1"
          >
          <mxGeometry
            as="geometry" 
            width="480" 
            height="60" 
            x="30" 
            y="270"
            />
          </mxCell>
        <mxCell
          style="shape=mxgraph.aws4.rds_postgresql_instance;fillColor=#C925D1;verticalLabelPosition=bottom;verticalAlign=top;align=center;aspect=fixed;strokeColor=#C925D1;fontColor=#C925D1" 
          id="postgres" 
          parent="storage_layer_storagelayer" 
          value="Postgres" 
          vertex="1"
          >
          <mxGeometry
            as="geometry" 
            width="60" 
            height="60" 
            x="165" 
            y="0"
            />
          </mxCell>
        <mxCell
          style="shape=mxgraph.aws4.elasticache_for_redis;fillColor=#C925D1;verticalLabelPosition=bottom;verticalAlign=top;align=center;aspect=fixed;strokeColor=#C925D1;fontColor=#C925D1" 
          id="redis" 
          parent="storage_layer_storagelayer" 
          value="Redis" 
          vertex="1"
          >
          <mxGeometry
            as="geometry" 
            width="60" 
            height="60" 
            x="255" 
            y="0"
            />
          </mxCell>
        <mxCell
          id="dependency" 
          source="client" 
          target="load_balancer_loadbalancer" 
          parent="root" 
          edge="1" 
          style="edgeStyle=orthogonalEdgeStyle;rounded=1;orthogonalLoop=1;jettySize=auto;html=1;startArrow=none;startFill=0;endArrow=block;endFill=1"
          >
          <mxGeometry
            relative="1" 
            as="geometry"
            >
            <Array
              as="points"
              >
              <mxPoint
                x="165" 
                y="240"
                />
              <mxPoint
                x="165" 
                y="240"
                />
              </Array>
            </mxGeometry>
          </mxCell>
        <mxCell
          id="dependency_2" 
          source="load_balancer_loadbalancer" 
          target="ecs_container_web" 
          parent="root" 
          edge="1" 
          style="edgeStyle=orthogonalEdgeStyle;rounded=1;orthogonalLoop=1;jettySize=auto;html=1;startArrow=none;startFill=0;endArrow=block;endFill=1"
          >
          <mxGeometry
            relative="1" 
            as="geometry"
            >
            <Array
              as="points"
              >
              <mxPoint
                x="375" 
                y="240"
                />
              <mxPoint
                x="375" 
                y="240"
                />
              </Array>
            </mxGeometry>
          </mxCell>
        <mxCell
          id="dependency_3" 
          source="load_balancer_loadbalancer" 
          target="waf" 
          parent="root" 
          edge="1" 
          style="edgeStyle=orthogonalEdgeStyle;rounded=1;orthogonalLoop=1;jettySize=auto;html=1;startArrow=none;startFill=0;endArrow=block;endFill=1"
          >
          <mxGeometry
            relative="1" 
            as="geometry"
            >
            <Array
              as="points"
              >
              <mxPoint
                x="270" 
                y="300"
                />
              <mxPoint
                x="270" 
                y="300"
                />
              </Array>
            </mxGeometry>
          </mxCell>
        <mxCell
          id="dependency_4" 
          source="ecs_cluster_ecscluster" 
          target="postgres" 
          parent="root" 
          edge="1" 
          style="edgeStyle=orthogonalEdgeStyle;rounded=1;orthogonalLoop=1;jettySize=auto;html=1;startArrow=none;startFill=0;endArrow=block;endFill=1"
          >
          <mxGeometry
            relative="1" 
            as="geometry"
            >
            <Array
              as="points"
              >
              <mxPoint
                x="625" 
                y="360"
                />
              <mxPoint
                x="585" 
                y="360"
                />
              </Array>
            </mxGeometry>
          </mxCell>
        <mxCell
          id="dependency_5" 
          source="ecs_cluster_ecscluster" 
          target="redis" 
          parent="root" 
          edge="1" 
          style="edgeStyle=orthogonalEdgeStyle;rounded=1;orthogonalLoop=1;jettySize=auto;html=1;startArrow=none;startFill=0;endArrow=block;endFill=1"
          >
          <mxGeometry
            relative="1" 
            as="geometry"
            >
            <Array
              as="points"
              >
              <mxPoint
                x="635" 
                y="360"
                />
              <mxPoint
                x="675" 
                y="360"
                />
              </Array>
            </mxGeometry>
          </mxCell>
        </root>
      </mxGraphModel>
    </diagram>
  </mxfile>